<svg width="64" height="80" viewBox="0 0 64 80" fill="none" xmlns="http://www.w3.org/2000/svg">
<g clip-path="url(#clip0_26_1811)">
<path fill-rule="evenodd" clip-rule="evenodd" d="M8.22896 74.8888L15.2441 70.8666L18.0607 69.2505L20.8259 67.6562L25.1646 65.1698L32.0552 61.2354L38.9529 65.1698L43.2844 67.6562L46.0492 69.2505L48.8733 70.8666L55.7417 74.8303L57.83 76.015L59.867 77.1778L64 79.5472V41.4756L55.7417 36.7294V65.4038L50.1527 62.1861L41.9163 57.4765L38.7763 55.6482L36.1881 54.1856V6.90679H27.9294V55.3118L22.1936 58.61L13.9648 63.3562L8.22896 66.6251V36.7879L-0.000244141 41.5047V79.6057L4.10323 77.2363L6.1625 76.0735L8.22896 74.8888ZM50.1455 55.619V-1.63489H41.9092V50.9094L50.1455 55.619ZM22.2012 52.0064V15.4411H13.9719V56.7525L22.2012 52.0064Z" fill="#6366F1"/>
</g>
<defs>
<clipPath id="clip0_26_1811">
<rect width="64" height="80" fill="white"/>
</clipPath>
</defs>
</svg>
