<svg width="25" height="32" viewBox="0 0 25 32" fill="none" xmlns="http://www.w3.org/2000/svg">
<g clip-path="url(#clip0_31_816)">
<path fill-rule="evenodd" clip-rule="evenodd" d="M3.21441 29.9555L5.95472 28.3467L7.05493 27.7002L8.13509 27.0625L9.82988 26.0679L12.5215 24.4942L15.216 26.0679L16.9079 27.0625L17.988 27.7002L19.0911 28.3467L21.7741 29.9322L22.5898 30.406L23.3855 30.8711L25 31.8189V16.5902L21.7741 14.6918V26.1615L19.5909 24.8744L16.3735 22.9906L15.1469 22.2593L14.1359 21.6743V2.76274H10.9099V22.1247L8.66935 23.444L5.45496 25.3425L3.21441 26.6501V14.7152L-0.00012207 16.6019V31.8423L1.6028 30.8945L2.4072 30.4294L3.21441 29.9555ZM19.5881 22.2476V-0.653931H16.3707V20.3638L19.5881 22.2476ZM8.6723 20.8026V6.17648H5.45777V22.701L8.6723 20.8026Z" fill="#6366F1"/>
</g>
<defs>
<clipPath id="clip0_31_816">
<rect width="25" height="32" fill="white"/>
</clipPath>
</defs>
</svg>
